PathFileType  4	(X/Y/Z) C:\Users\antoi\Documents\MyRepositories\mobilecap\ResultsAnalysis
DataRate	CameraRate	NumFrames	NumMarkers	Units	OrigDataRate	OrigDataStartFrame	OrigNumFrames
100.0	100.0	6	51	mm	100.0	1	1302
Frame#	Time	r_knee			r_shank_antsup			r_ankle			r_calc			r_5meta			r_toe			L_knee			L_shank_antsup			L_ankle			L_calc			L_5meta			L_toe			r_sh2			r_sh3			r_sh4			L_sh2			L_sh3			r_thigh1			r_thigh2			r_thigh3			r_thigh4			r_thigh5			L_thigh1			L_thigh2			L_thigh3			L_thigh4			r.ASIS			r.PSIS			L.ASIS			L.PSIS			C7			R_Shoulder			L_Shoulder			R_Sternum			L_Sternum			R_humerus			R_elbow_med			R_elbow_lat			R_forearm			R_wrist_radius			R_wrist_ulna			L_humerus			L_elbow_med			L_elbow_lat			L_forearm			L_wrist_radius			L_wrist_ulna			R_HJC			L_HJC			R_HJC_reg			L_HJC_reg			
		X1	Y1	Z1	X2	Y2	Z2	X3	Y3	Z3	X4	Y4	Z4	X5	Y5	Z5	X6	Y6	Z6	X7	Y7	Z7	X8	Y8	Z8	X9	Y9	Z9	X10	Y10	Z10	X11	Y11	Z11	X12	Y12	Z12	X13	Y13	Z13	X14	Y14	Z14	X15	Y15	Z15	X16	Y16	Z16	X17	Y17	Z17	X18	Y18	Z18	X19	Y19	Z19	X20	Y20	Z20	X21	Y21	Z21	X22	Y22	Z22	X23	Y23	Z23	X24	Y24	Z24	X25	Y25	Z25	X26	Y26	Z26	X27	Y27	Z27	X28	Y28	Z28	X29	Y29	Z29	X30	Y30	Z30	X31	Y31	Z31	X32	Y32	Z32	X33	Y33	Z33	X34	Y34	Z34	X35	Y35	Z35	X36	Y36	Z36	X37	Y37	Z37	X38	Y38	Z38	X39	Y39	Z39	X40	Y40	Z40	X41	Y41	Z41	X42	Y42	Z42	X43	Y43	Z43	X44	Y44	Z44	X45	Y45	Z45	X46	Y46	Z46	X47	Y47	Z47	X48	Y48	Z48	X49	Y49	Z49	X50	Y50	Z50	X51	Y51	Z51	

1	0.00000000	-224.52613	502.44874	-486.55271	-189.58245	436.81119	-491.82341	-265.95474	101.87469	-434.93845	-335.80711	65.04778	-462.23102	-162.16069	46.07225	-397.98004	-116.09844	69.20151	-456.99337	-228.17827	499.18559	-880.97120	-202.32325	412.50476	-898.91002	-265.83926	102.20310	-916.95715	-329.64727	62.61756	-873.42057	-161.82925	41.96666	-966.19336	-118.96391	62.53572	-911.04211	-213.95319	331.09240	-449.66445	-264.74756	456.08755	-463.15337	-284.19121	345.40981	-440.99628	-290.80726	424.27380	-897.95704	-294.71775	303.56876	-921.34373	-150.44204	814.51082	-501.99154	-159.61020	704.08220	-493.83724	-217.31749	687.75310	-462.27369	-263.18301	822.76583	-485.26164	-267.52786	705.34222	-478.65536	-186.01685	770.05360	-901.87830	-182.83255	632.71130	-890.90081	-295.57197	766.63358	-858.42061	-286.87539	627.16344	-861.06981	-129.43193	971.97132	-560.05818	-313.56277	1018.39885	-645.95403	-118.69978	953.27357	-811.97583	-317.03492	1018.86725	-746.14251	-306.84655	1424.59731	-712.68158	-219.38259	1405.73303	-538.53949	-230.96169	1401.25697	-885.09479	-167.42130	1396.62144	-687.10321	-162.94138	1395.67798	-728.58063	-199.39937	1317.56740	-435.71164	-176.72032	1105.94230	-375.36876	-179.65276	1160.03517	-317.95703	-61.44945	1214.77150	-366.61743	50.95236	1253.70439	-424.68047	72.58872	1235.96974	-401.08000	-198.64104	1311.42909	-965.01758	-144.66838	1076.94278	-978.14642	-150.43789	1127.65211	-1045.53638	-64.93632	1182.84951	-1004.86768	66.25364	1236.71720	-951.13892	81.88105	1216.38639	-972.76209	-209.96479	895.92690	-583.40602	-204.17921	886.63770	-789.58668	-198.25483	892.34746	-592.98228	-204.03449	893.12715	-759.75373	
2	0.01000000	-224.51578	502.33774	-486.55921	-189.59142	436.77430	-491.76190	-265.97513	101.96825	-434.78869	-335.79741	65.03496	-462.21732	-162.14258	46.06327	-397.97813	-116.07050	69.19036	-456.95940	-228.14151	499.16152	-880.91717	-202.30204	412.50219	-898.90510	-265.84076	102.20213	-916.92275	-329.59839	62.68574	-873.45494	-161.83140	41.94164	-966.19287	-118.99219	62.50281	-911.12588	-213.89839	331.00586	-449.61783	-264.74278	456.14441	-463.16903	-284.37601	345.55065	-441.17258	-290.70206	424.29967	-897.98975	-294.67796	303.58395	-921.35410	-150.38251	814.42994	-502.07194	-159.50432	704.12694	-493.66189	-217.18113	687.69170	-462.19915	-263.06958	822.90916	-485.30146	-267.49187	705.33602	-478.67024	-185.92863	769.99582	-901.88179	-182.76921	632.68986	-890.87038	-295.51286	766.58463	-858.30096	-286.77554	627.09914	-860.99206	-129.28988	971.99057	-559.93957	-313.42407	1018.37302	-645.92500	-118.63023	953.24527	-811.97346	-316.91585	1018.74312	-746.04155	-306.81179	1424.56005	-712.65932	-219.38272	1405.66655	-538.52055	-230.97390	1401.24562	-885.10641	-167.45997	1396.59998	-687.12255	-162.94365	1395.67512	-728.59158	-199.43070	1317.61128	-435.71117	-176.69842	1105.95361	-375.35166	-179.62939	1160.01888	-317.94876	-61.44803	1214.80872	-366.54477	51.01136	1253.80253	-424.59051	72.61716	1236.16241	-401.10177	-198.64223	1311.44418	-965.01249	-144.58421	1076.95788	-978.14730	-150.39551	1127.67721	-1045.61760	-64.89962	1182.87116	-1004.93417	66.37972	1236.82876	-951.27005	81.96044	1216.51529	-972.88076	-209.79786	895.92314	-583.31612	-204.05221	886.57207	-789.49510	-198.14165	892.41506	-592.79790	-203.96084	893.03177	-759.64541	
3	0.02000000	-224.53174	502.31898	-486.56904	-189.58790	436.77557	-491.74076	-265.99162	102.00182	-434.72133	-335.78666	65.03516	-462.19675	-162.11200	46.06190	-397.98050	-116.05872	69.14146	-456.98285	-228.09919	499.14394	-880.88507	-202.26263	412.50625	-898.91016	-265.85359	102.19960	-916.86728	-329.58832	62.71893	-873.50130	-161.83332	41.92454	-966.19938	-118.99950	62.47863	-911.16399	-213.90199	331.04305	-449.62566	-264.71839	456.15214	-463.17969	-284.41249	345.57810	-441.22476	-290.64980	424.31485	-898.04263	-294.63999	303.59880	-921.35303	-150.29757	814.39262	-502.07287	-159.45420	704.14035	-493.59257	-217.17508	687.67355	-462.18001	-263.04439	822.84052	-485.35139	-267.41290	705.37001	-478.63177	-185.84763	769.94780	-901.75831	-182.68815	632.65987	-890.80671	-295.42587	766.55607	-858.19139	-286.67926	627.06874	-860.93316	-129.19813	972.02230	-559.88872	-313.34013	1018.34913	-645.90889	-118.56988	953.22981	-811.96946	-316.83882	1018.73047	-746.03946	-306.82211	1424.53603	-712.66902	-219.40936	1405.65724	-538.55825	-230.98773	1401.23468	-885.11138	-167.45844	1396.58442	-687.11131	-162.95234	1395.67504	-728.59452	-199.45495	1317.63201	-435.72238	-176.67234	1105.97594	-375.33402	-179.62246	1160.00818	-317.98127	-61.41542	1214.89904	-366.51103	51.04152	1253.90567	-424.54085	72.63595	1236.26432	-401.08135	-198.65087	1311.44548	-965.01292	-144.49505	1076.97508	-978.15056	-150.34130	1127.69980	-1045.62283	-64.83589	1182.95142	-1005.02839	66.44729	1236.91023	-951.32990	82.00866	1216.59242	-972.93091	-209.70539	895.93696	-583.28253	-203.96682	886.55229	-789.46018	-198.03644	892.37151	-592.75845	-203.86738	893.00704	-759.63776	
4	0.03000000	-224.55495	502.37628	-486.57262	-189.59545	436.78440	-491.74299	-266.00140	102.00749	-434.71313	-335.77376	65.07245	-462.22370	-162.10140	46.07711	-397.97038	-116.05507	69.07817	-457.03861	-228.03930	499.14086	-880.89650	-202.19502	412.51346	-898.93146	-265.86316	102.20375	-916.82812	-329.60260	62.71705	-873.53134	-161.83232	41.91126	-966.22448	-118.99358	62.46652	-911.16536	-213.90365	331.14925	-449.66192	-264.69505	456.13757	-463.18060	-284.33152	345.52200	-441.14222	-290.61066	424.32185	-898.08706	-294.56674	303.62403	-921.36753	-150.18136	814.43193	-502.04517	-159.40660	704.15430	-493.57981	-217.22322	687.72944	-462.18736	-263.04097	822.73120	-485.34383	-267.32336	705.41924	-478.57597	-185.76678	769.94904	-901.69612	-182.61209	632.64628	-890.75482	-295.23233	766.78920	-858.43767	-286.58209	627.06216	-860.89364	-129.12094	972.08233	-559.87718	-313.30621	1018.34127	-645.92610	-118.51484	953.23080	-811.96956	-316.80421	1018.78909	-746.09936	-306.83538	1424.52291	-712.67929	-219.44631	1405.68850	-538.60875	-231.00560	1401.23089	-885.10713	-167.45131	1396.59321	-687.10871	-162.95816	1395.67738	-728.58749	-199.44632	1317.63908	-435.70749	-176.66485	1105.98221	-375.32412	-179.59011	1160.05116	-317.98785	-61.37627	1215.00530	-366.53694	51.04281	1254.02430	-424.53087	72.65018	1236.31165	-401.04120	-198.66201	1311.44346	-965.01995	-144.45658	1076.99226	-978.22943	-150.28242	1127.72688	-1045.59666	-64.76858	1183.05434	-1005.07827	66.48451	1236.98805	-951.34551	82.04120	1216.65168	-972.93729	-209.65604	895.98167	-583.28414	-203.90630	886.56613	-789.46007	-197.93124	892.28321	-592.79758	-203.75891	893.02927	-759.68649	
5	0.04000000	-224.54874	502.44601	-486.55431	-189.59686	436.80718	-491.74354	-265.99398	101.99883	-434.75231	-335.76162	65.11754	-462.28643	-162.13253	46.10135	-397.93282	-116.05110	69.04880	-457.05071	-227.96352	499.15605	-880.92252	-202.10538	412.52176	-898.94093	-265.85916	102.22190	-916.82446	-329.60518	62.72336	-873.53472	-161.82828	41.90356	-966.25610	-118.98554	62.46323	-911.15290	-213.86652	331.20747	-449.67599	-264.69164	456.14920	-463.17837	-284.28838	345.58201	-441.08778	-290.52729	424.34853	-898.10549	-294.46705	303.65866	-921.39425	-150.05630	814.49184	-502.05585	-159.31709	704.20604	-493.55343	-217.19819	687.82629	-462.17942	-262.96791	822.78451	-485.27044	-267.26162	705.44009	-478.54681	-185.67128	770.05767	-901.85095	-182.55632	632.66444	-890.74339	-294.97326	767.24772	-859.00017	-286.49627	627.06439	-860.85984	-129.02259	972.15346	-559.84525	-313.26844	1018.33176	-645.93501	-118.45454	953.25642	-811.97646	-316.79970	1018.80135	-746.11690	-306.84022	1424.51215	-712.65964	-219.46863	1405.71538	-538.61940	-231.02701	1401.24219	-885.10897	-167.46920	1396.61912	-687.14622	-162.95924	1395.69147	-728.58236	-199.42582	1317.67057	-435.67320	-176.64032	1105.98617	-375.31131	-179.51945	1160.14082	-317.94975	-61.34875	1215.07938	-366.58659	51.04704	1254.16076	-424.51669	72.66506	1236.40608	-401.01906	-198.67177	1311.45540	-965.02621	-144.45026	1077.03506	-978.34823	-150.22729	1127.75382	-1045.55858	-64.72293	1183.11973	-1005.06160	66.52021	1237.09251	-951.36597	82.08839	1216.75777	-972.95485	-209.57183	896.02748	-583.26920	-203.83180	886.57897	-789.44389	-197.79516	892.25921	-592.76376	-203.67866	893.04161	-759.67726	
6	0.05000000	-224.51136	502.48795	-486.51675	-189.55923	436.86865	-491.74097	-265.97704	101.99098	-434.79170	-335.74247	65.14827	-462.30717	-162.16477	46.10095	-397.90427	-116.04176	69.05767	-457.01141	-227.88655	499.17538	-880.91689	-202.00448	412.53262	-898.91363	-265.84863	102.25343	-916.82464	-329.58939	62.76626	-873.53529	-161.82531	41.91497	-966.26664	-118.97418	62.46405	-911.13391	-213.85395	331.20535	-449.66521	-264.69928	456.18671	-463.18191	-284.28333	345.75594	-441.10925	-290.41976	424.40254	-898.12441	-294.39740	303.70099	-921.40294	-149.96195	814.48089	-502.05981	-159.23500	704.27565	-493.54247	-217.11781	687.87477	-462.16793	-262.85129	822.90527	-485.22978	-267.21442	705.44194	-478.51086	-185.57339	770.24332	-902.06359	-182.49950	632.69725	-890.73778	-294.80708	767.53336	-859.33666	-286.43817	627.08487	-860.83488	-128.93843	972.19027	-559.79046	-313.21057	1018.31391	-645.89315	-118.38882	953.31017	-811.98980	-316.79082	1018.75136	-746.06396	-306.87736	1424.50420	-712.63151	-219.47606	1405.73270	-538.62321	-231.05035	1401.26926	-885.12124	-167.48010	1396.62910	-687.17598	-162.97345	1395.73432	-728.59432	-199.43506	1317.72907	-435.68260	-176.51173	1106.06427	-375.25511	-179.46894	1160.20796	-317.95101	-61.31406	1215.14217	-366.61027	51.07447	1254.29763	-424.46720	72.67608	1236.54036	-401.02109	-198.68193	1311.48251	-965.02153	-144.36470	1077.13002	-978.34615	-150.16927	1127.78740	-1045.49836	-64.68311	1183.16864	-1005.04406	66.54239	1237.21092	-951.38027	82.14782	1216.90684	-972.98211	-209.45942	896.03604	-583.23794	-203.74673	886.59288	-789.41363	-197.67400	892.30698	-592.66243	-203.64121	893.03607	-759.61668	
